mtllib turkeyleg3dpaint.mtl
g Group1888
v 1.682716 1.072215 2.201744
v 1.495400 1.365400 2.032431
v 1.482678 1.136377 2.100667
v 1.491017 0.711589 2.073892
v 1.587292 0.879921 2.011267
v 1.578249 0.775466 2.115881
v 1.997431 1.271042 1.891578
v 1.861855 1.353567 2.119491
v 1.944959 1.073275 1.994618
v 1.749040 1.527074 1.890192
v 1.891700 1.483680 1.963284
v 1.617082 1.349819 1.729006
v 1.596661 1.479886 1.946009
v 1.749598 1.462557 1.742927
v 1.514333 1.205620 1.774379
v 1.679177 0.925095 1.857162
v 1.479920 1.042845 1.885843
v 1.472237 0.592571 2.210368
v 1.502935 0.619172 2.197690
v 1.453043 0.672912 2.260175
v 1.430543 0.636168 2.261335
v 1.371228 0.698469 2.216095
v 1.364305 0.657372 2.226925
v 1.428684 0.585882 2.145031
v 1.451161 0.610486 2.115979
v 1.368306 0.660041 2.128121
v 1.362126 0.625318 2.154723
v 1.631632 0.888145 2.080480
v 1.802951 0.944070 2.054341
v 1.589466 0.932951 2.131930
v 1.517238 0.956400 2.096004
v 1.639688 1.276051 2.073877
v 1.399857 0.684478 2.128349
v 1.451480 0.793685 2.083385
v 1.482836 0.690504 2.098517
v 1.458238 0.647303 2.120718
v 1.463264 0.821495 2.061363
v 1.467083 0.835737 2.092928
v 1.458031 0.864865 2.076852
v 1.555581 0.763276 2.153093
v 1.516775 0.922286 2.021685
v 1.821004 1.087129 1.740719
v 1.953324 1.225064 1.853863
v 1.974349 1.392539 1.857439
v 1.893928 1.241944 1.789086
v 1.861973 1.427548 1.800183
v 1.850098 1.330537 1.719806
v 1.834532 1.258824 1.724309
v 1.780170 1.281573 1.725484
v 1.451029 0.843105 2.144699
v 1.450363 0.819166 2.153296
v 1.487634 0.910633 2.086428
v 1.487403 0.893575 2.049268
v 1.461928 0.695125 2.229114
v 1.399414 0.715508 2.196510
v 1.520247 0.888028 2.138314
v 1.499385 0.652643 2.184878
v 1.580994 0.890532 2.137221
v 1.540190 0.771587 2.161050
vt 0.802174 0.195652
vt 0.550930 0.326580
vt 0.645094 0.165775
vt 0.331551 0.716407
vt 0.476659 0.704549
vt 0.391047 0.768289
vt 0.950646 0.520721
vt 0.796253 0.426576
vt 0.997460 0.344432
vt 0.647181 0.545138
vt 0.761654 0.554443
vt 0.456935 0.568326
vt 0.582944 0.450771
vt 0.583836 0.613376
vt 0.384637 0.461652
vt 0.165141 0.449409
vt 0.298148 0.361842
vt 0.238361 0.792400
vt 0.258775 0.785092
vt 0.257481 0.844598
vt 0.228757 0.844368
vt 0.266402 0.907843
vt 0.233772 0.903696
vt 0.204288 0.752870
vt 0.238377 0.740649
vt 0.231782 0.684545
vt 0.202025 0.692582
vt 0.219237 0.623304
vt 0.189874 0.639292
vt 0.878954 0.074581
vt 0.959801 0.190947
vt 0.811163 0.084162
vt 0.745914 0.062968
vt 0.759385 0.791994
vt 0.891770 0.681794
vt 0.866532 0.922554
vt 0.627000 0.902194
vt 0.258587 0.681500
vt 0.351428 0.659363
vt 0.309735 0.724689
vt 0.267616 0.731668
vt 0.381366 0.656316
vt 0.373327 0.635070
vt 0.396267 0.631379
vt 0.365585 0.788531
vt 0.466040 0.643867
vt 0.553363 0.771679
vt 0.638572 0.951887
vt 0.496671 0.917571
vt 0.477774 0.966202
vt 0.875774 0.587936
vt 0.675325 0.782160
vt 0.755713 0.673616
vt 0.739501 0.792188
vt 0.781907 0.758239
vt 0.669516 0.647993
vt 0.610727 0.719706
vt 0.611462 0.772276
vt 0.212748 0.616320
vt 0.002390 0.609290
vt 0.010634 0.457022
vt 0.618003 0.894996
vt 0.190404 0.961027
vt 0.122667 0.856443
vt 0.330781 0.964478
vt 0.212984 0.995889
vt 0.135426 0.327103
vt 0.075354 0.328479
vt 0.201165 0.283410
vt 0.400211 0.225583
vt 0.246345 0.221029
vt 0.356075 0.600408
vt 0.337289 0.609477
vt 0.456726 0.582135
vt 0.426096 0.607585
vt 0.430877 0.636556
vt 0.481784 0.821123
vt 0.374825 0.886813
vt 0.280994 0.840144
vt 0.290667 0.893653
vt 0.438911 0.858694
vt 0.391453 0.892733
vt 0.480844 0.767134
vt 0.276646 0.784374
vt 0.452441 0.813917
vt 0.364060 0.801561
vt 0.250984 0.626115
vt 0.498775 0.887839
vt 0.174914 0.843545
vt 0.157926 0.788239
vt 0.529852 0.712103
vt 0.561517 0.750241
vn -0.047198 -0.041291 0.996338
vn -0.808990 0.425932 0.400927
vn -0.849910 0.027610 0.522989
vn 0.057034 -0.701392 -0.708111
vn 0.308341 -0.753098 -0.578269
vn 0.918225 -0.379818 0.096010
vn 0.990163 0.098972 0.080035
vn 0.415623 0.450898 0.787762
vn 0.846005 -0.381658 0.367747
vn -0.172490 0.983202 0.013705
vn 0.519736 0.846580 0.099009
vn -0.452230 0.439086 -0.774155
vn -0.528557 0.823026 0.199694
vn 0.082762 0.528939 -0.842615
vn -0.698922 -0.057461 -0.710516
vn -0.008924 -0.765006 -0.641330
vn -0.837960 -0.370189 -0.396746
vn 0.312416 -0.870415 0.376018
vn 0.939157 -0.311219 0.133230
vn 0.336864 0.343700 0.874653
vn -0.107967 -0.391309 0.912051
vn -0.662882 0.647801 0.370898
vn -0.746131 -0.399256 0.529629
vn -0.240341 -0.964259 -0.095207
vn 0.306872 -0.428114 -0.848040
vn -0.703026 0.149937 -0.692745
vn -0.823975 -0.532281 -0.185361
vn -0.662882 0.647801 0.370898
vn -0.746131 -0.399256 0.529629
vn 0.673824 -0.368117 0.638023
vn 0.555370 -0.763532 0.324360
vn 0.245683 -0.048845 0.966375
vn -0.945159 0.108508 0.302528
vn 0.000000 0.000000 0.000000
vn -0.047198 -0.041291 0.996338
vn 0.415623 0.450898 0.787762
vn -0.528557 0.823026 0.199694
vn -0.618820 0.295660 -0.725448
vn -0.957590 0.095290 -0.265647
vn 0.076971 -0.720151 -0.687082
vn 0.360708 -0.235207 -0.900663
vn -0.877974 -0.060942 -0.471245
vn -0.996229 0.021439 0.060778
vn -0.973043 0.120215 -0.188046
vn 0.911670 -0.266424 0.307409
vn -0.825452 -0.096141 -0.553182
vn 0.482732 -0.449747 -0.749214
vn 0.846005 -0.381658 0.367747
vn 0.701981 -0.096576 -0.703222
vn 0.990163 0.098972 0.080035
vn 0.787881 0.356883 -0.498496
vn 0.709318 -0.089813 -0.696724
vn 0.787881 0.356883 -0.498496
vn 0.701981 -0.096576 -0.703222
vn 0.990163 0.098972 0.080035
vn 0.473203 0.734411 -0.483053
vn 0.443598 0.141663 -0.883049
vn 0.504712 -0.090940 -0.856514
vn 0.482732 -0.449747 -0.749214
vn 0.846005 -0.381658 0.367747
vn 0.555370 -0.763532 0.324360
vn 0.482732 -0.449747 -0.749214
vn -0.011886 0.023107 -0.997974
vn -0.452230 0.439086 -0.774155
vn 0.482732 -0.449747 -0.749214
vn 0.504712 -0.090940 -0.856514
vn 0.308341 -0.753098 -0.578269
vn 0.673824 -0.368117 0.638023
vn -0.825452 -0.096141 -0.553182
vn -0.849910 0.027610 0.522989
vn -0.945159 0.108508 0.302528
vn -0.821759 -0.449010 -0.350858
vn -0.961984 0.259986 0.060154
vn -0.945159 0.108508 0.302528
vn -0.785965 0.561257 -0.252737
vn -0.803259 0.437881 -0.399568
vn 0.245683 -0.048845 0.966375
vn -0.961984 0.259986 0.060154
vn 0.304200 0.472426 0.825167
vn -0.579619 0.753646 0.304443
vn 0.000000 0.000000 0.000000
vn -0.821759 -0.449010 -0.350858
vn 0.673824 -0.368117 0.638023
vn 0.984311 -0.106537 0.128077
vn 0.613908 -0.024456 0.786858
vn 0.465649 0.017131 0.882895
vn -0.579619 0.753646 0.304443
vn -0.945159 0.108508 0.302528
vn -0.746131 -0.399256 0.529629
vn -0.823975 -0.532281 -0.185361
vn -0.011886 0.023107 -0.997974
vn 0.504712 -0.090940 -0.856514
usemtl __PS_3D_Default
f 1/1/1 2/2/2 3/3/3
f 4/4/4 5/5/5 6/6/6
f 7/7/7 8/8/8 9/9/9
f 10/10/10 8/8/8 11/11/11
f 10/10/10 12/12/12 13/13/13
f 13/13/13 8/8/8 10/10/10
f 14/14/14 12/12/12 10/10/10
f 15/15/15 16/16/16 17/17/17
f 18/18/18 19/19/19 20/20/20
f 20/20/20 21/21/21 18/18/18
f 20/20/20 22/22/22 23/23/23
f 23/23/23 21/21/21 20/20/20
f 24/24/24 25/25/25 19/19/19
f 19/19/19 18/18/18 24/24/24
f 26/26/26 25/25/25 24/24/24
f 24/24/24 27/27/27 26/26/26
f 22/28/28 26/26/26 27/27/27
f 27/27/27 23/29/29 22/28/28
f 28/30/30 29/31/31 1/1/1
f 1/1/1 30/32/32 28/30/30
f 1/1/1 3/3/3 31/33/33
f 31/33/33 30/32/32 1/1/1
f 2/2/2 1/1/1 8/8/8
f 8/8/8 13/13/13 2/2/2
f 32/34/34 1/35/35 8/36/36
f 8/36/36 13/37/37 32/34/34
f 9/9/9 8/8/8 1/1/1
f 1/1/1 29/31/31 9/9/9
f 33/38/38 34/39/39 35/40/40
f 35/40/40 36/41/41 33/38/38
f 37/42/42 34/39/39 38/43/43
f 38/43/43 39/44/44 37/42/42
f 34/39/39 37/42/42 4/4/4
f 4/4/4 35/40/40 34/39/39
f 4/4/4 6/6/6 40/45/45
f 40/45/45 35/40/40 4/4/4
f 4/4/4 37/42/42 5/5/5
f 41/46/46 5/5/5 37/42/42
f 42/47/47 9/48/48 43/49/49
f 7/50/50 43/49/49 9/48/48
f 11/11/11 8/8/8 7/7/7
f 7/7/7 44/51/51 11/11/11
f 45/52/52 44/53/53 43/54/54
f 7/55/55 43/54/54 44/53/53
f 46/56/56 44/53/53 47/57/57
f 47/57/57 14/14/14 46/56/56
f 47/57/57 44/53/53 45/52/52
f 45/52/52 48/58/58 47/57/57
f 16/16/16 42/59/59 9/60/60
f 9/60/60 29/61/61 16/16/16
f 42/59/59 16/16/16 15/15/15
f 15/15/15 12/12/12 42/59/59
f 45/52/52 43/54/54 42/62/62
f 42/62/62 48/58/58 45/52/52
f 49/63/63 12/64/64 42/65/65
f 42/65/65 48/66/66 49/63/63
f 5/67/67 16/16/16 29/61/61
f 29/61/61 28/68/68 5/67/67
f 41/69/69 17/17/17 16/16/16
f 16/16/16 5/67/67 41/69/69
f 3/70/70 17/17/17 31/71/71
f 41/69/69 31/71/71 17/17/17
f 3/70/70 2/2/2 15/15/15
f 15/15/15 17/17/17 3/70/70
f 39/44/44 38/43/43 50/72/72
f 51/73/73 50/72/72 38/43/43
f 31/74/74 52/75/75 50/72/72
f 39/44/44 50/72/72 52/75/75
f 53/76/76 41/46/46 37/42/42
f 37/42/42 39/44/44 53/76/76
f 30/77/77 51/78/78 54/79/79
f 55/80/80 54/79/79 51/78/78
f 30/77/77 56/81/81 51/78/78
f 50/82/82 51/78/78 56/81/81
f 40/45/45 6/6/6 28/83/83
f 5/5/5 28/83/83 6/6/6
f 35/40/40 40/45/45 57/84/84
f 57/84/84 36/41/41 35/40/40
f 58/85/85 59/86/86 40/45/45
f 57/84/84 40/45/45 59/86/86
f 58/85/85 40/45/45 28/83/83
f 28/83/83 30/77/77 58/85/85
f 20/20/20 19/19/19 57/84/84
f 57/84/84 54/79/79 20/20/20
f 22/22/22 20/20/20 54/79/79
f 54/79/79 55/80/80 22/22/22
f 19/19/19 25/25/25 36/41/41
f 36/41/41 57/84/84 19/19/19
f 25/25/25 26/26/26 36/41/41
f 33/38/38 36/41/41 26/26/26
f 33/38/38 26/26/26 55/87/87
f 22/28/28 55/87/87 26/26/26
f 12/12/12 15/15/15 2/2/2
f 2/2/2 13/13/13 12/12/12
f 50/82/82 56/81/81 31/88/88
f 30/77/77 31/88/88 56/81/81
f 18/18/18 21/21/21 24/24/24
f 23/89/89 24/24/24 21/21/21
f 24/24/24 23/89/89 27/90/90
f 33/38/38 55/87/87 51/73/73
f 51/73/73 34/39/39 33/38/38
f 34/39/39 51/73/73 38/43/43
f 14/14/14 10/10/10 46/56/56
f 11/11/11 46/56/56 10/10/10
f 46/56/56 11/11/11 44/53/53
f 14/14/14 47/57/57 49/91/91
f 48/92/92 49/91/91 47/57/57
f 14/14/14 49/91/91 12/12/12
f 31/74/74 41/46/46 52/75/75
f 53/76/76 52/75/75 41/46/46
f 53/76/76 39/44/44 52/75/75
f 54/79/79 57/84/84 59/86/86
f 59/86/86 30/77/77 54/79/79
f 30/77/77 59/86/86 58/85/85
