# Blender v2.78 (sub 0) OBJ File: 'felt.blend'
# www.blender.org
mtllib felt.mtl
o mesh_1222918399_mesh
v -0.141748 0.024999 0.245503
v 0.141752 0.024999 0.245503
v 0.175001 -0.025001 0.303094
v -0.174999 -0.025001 0.303094
v 0.283502 0.024999 -0.000016
v 0.350002 -0.025001 -0.000015
v 0.141752 0.024999 -0.245534
v 0.175002 -0.025001 -0.303123
v -0.141748 0.024999 -0.245534
v -0.174999 -0.025001 -0.303123
v -0.283498 0.024999 -0.000016
v -0.349998 -0.025001 -0.000015
vt 0.5572 0.6989
vt 0.5572 0.3011
vt 0.5939 0.3389
vt 0.5939 0.6611
vt 0.7500 0.1023
vt 0.7500 0.1778
vt 0.9428 0.3011
vt 0.9061 0.3389
vt 0.9428 0.6989
vt 0.9061 0.6611
vt 0.7500 0.8977
vt 0.7500 0.8222
vt 0.2500 0.8977
vt 0.0572 0.6989
vt 0.0572 0.3011
vt 0.2500 0.1023
vt 0.4428 0.3011
vt 0.4428 0.6989
vn 0.0000 0.7551 0.6556
vn 0.5678 0.7551 0.3278
vn 0.5678 0.7551 -0.3278
vn 0.0000 0.7551 -0.6556
vn -0.5678 0.7551 -0.3278
vn -0.5678 0.7551 0.3278
vn 0.0000 -1.0000 -0.0000
vn 0.0000 1.0000 0.0000
usemtl felt
s 1
f 4/1/1 3/2/1 2/3/1 1/4/1
f 3/2/2 6/5/2 5/6/2 2/3/2
f 6/5/3 8/7/3 7/8/3 5/6/3
f 8/7/4 10/9/4 9/10/4 7/8/4
f 10/9/5 12/11/5 11/12/5 9/10/5
f 12/11/6 4/1/6 1/4/6 11/12/6
f 12/13/7 10/14/7 8/15/7 6/16/7 3/17/7 4/18/7
f 1/4/8 2/3/8 5/6/8 7/8/8 9/10/8 11/12/8
