# Blender v2.79 (sub 0) OBJ File: 'SparkleKitty_Animation.blend'
# www.blender.org
mtllib knightShoes.mtl
o knightshoes_knightshoemesh
v 0.616754 1.971902 3.453585
v 0.702850 1.971902 3.453585
v 0.606488 1.971902 2.933894
v 0.713117 1.971902 2.933894
v 0.604212 2.057375 3.425780
v 0.715393 2.057375 3.425780
v 0.606488 2.199247 2.935225
v 0.713117 2.199247 2.935225
v 0.513704 1.971902 3.056645
v 0.542115 1.971902 3.157339
v 0.560349 1.971902 3.279783
v 0.603061 1.971902 3.354365
v 0.716544 1.971902 3.354365
v 0.759256 1.971902 3.279783
v 0.777490 1.971902 3.157339
v 0.805901 1.971902 3.056645
v 0.537259 2.181608 3.056707
v 0.561914 2.188531 3.224219
v 0.591739 2.183401 3.279783
v 0.606733 2.128694 3.354365
v 0.712872 2.128694 3.354365
v 0.727866 2.183401 3.279783
v 0.757691 2.188531 3.224219
v 0.782346 2.181608 3.056707
v 0.513704 1.971902 3.106992
v 0.805901 1.971902 3.106992
v 0.533677 2.185070 3.140463
v 0.785928 2.185070 3.140463
v 0.805901 1.971902 2.995270
v 0.766487 2.190428 2.995966
v 0.513704 1.971902 2.995270
v 0.553118 2.190428 2.995966
v 0.606488 2.092158 2.935225
v 0.606488 2.145702 2.935225
v 0.713117 2.145702 2.935225
v 0.713117 2.092158 2.935225
v 0.718670 1.993528 3.453585
v 0.720960 2.036634 3.439078
v 0.598645 2.036634 3.439078
v 0.600935 1.993528 3.453585
v 0.513704 2.074520 3.056707
v 0.513704 2.128064 3.056707
v 0.542115 2.065068 3.178690
v 0.542115 2.126800 3.201455
v 0.542176 2.051600 3.279783
v 0.547862 2.117501 3.279783
v 0.549212 2.021605 3.354365
v 0.561794 2.075149 3.354365
v 0.770393 2.021605 3.354365
v 0.757811 2.075149 3.354365
v 0.777428 2.051600 3.279783
v 0.771743 2.117501 3.279783
v 0.777490 2.065068 3.178690
v 0.777490 2.126800 3.201455
v 0.805901 2.074520 3.056707
v 0.805901 2.128064 3.056707
v 0.805901 2.069794 3.117699
v 0.805901 2.127432 3.129081
v 0.513704 2.069794 3.117699
v 0.513704 2.127432 3.129081
v 0.513704 2.083339 2.995966
v 0.513704 2.136883 2.995966
v 0.805901 2.083339 2.995966
v 0.805901 2.136883 2.995966
v 0.618712 2.327352 2.966245
v 0.700892 2.327352 2.966245
v 0.565356 2.313758 3.059873
v 0.584358 2.319093 3.188977
v 0.735247 2.319093 3.188977
v 0.754249 2.313758 3.059873
v 0.562596 2.316425 3.124425
v 0.757009 2.316425 3.124425
v 0.742026 2.320555 3.013059
v 0.577579 2.320555 3.013059
v 0.620867 2.330168 2.971712
v 0.698738 2.330168 2.971712
v 0.570308 2.317287 3.060431
v 0.588313 2.322342 3.182767
v 0.731291 2.322342 3.182767
v 0.749297 2.317287 3.060431
v 0.567692 2.319814 3.121599
v 0.751913 2.319814 3.121599
v 0.737715 2.323727 3.016071
v 0.581890 2.323727 3.016071
v 0.616200 2.415216 2.986628
v 0.703405 2.415216 2.986628
v 0.559582 2.441262 3.057037
v 0.579745 2.473774 3.196221
v 0.739860 2.473774 3.196221
v 0.760023 2.441262 3.057037
v 0.556652 2.470943 3.127721
v 0.762953 2.470943 3.127721
v 0.747053 2.421783 3.009572
v 0.572552 2.421783 3.009572
v 0.618078 2.421775 2.988307
v 0.701527 2.421775 2.988307
v 0.563899 2.446192 3.057037
v 0.583194 2.478960 3.190806
v 0.736411 2.478960 3.190806
v 0.755706 2.446192 3.057037
v 0.561095 2.476251 3.125257
v 0.758509 2.476251 3.125257
v 0.743295 2.426394 3.013012
v 0.576310 2.426394 3.013012
v 0.614299 2.421340 2.975907
v 0.705306 2.421340 2.975907
v 0.555211 2.449874 3.057037
v 0.576254 2.484099 3.202034
v 0.743351 2.484099 3.202034
v 0.764394 2.449874 3.057037
v 0.552154 2.481144 3.130547
v 0.767451 2.481144 3.130547
v 0.750858 2.432417 3.009004
v 0.568747 2.432417 3.009004
v 0.614299 2.623421 2.980923
v 0.705306 2.623421 2.980923
v 0.555211 2.623421 3.062998
v 0.764394 2.623421 3.062998
v 0.618347 2.623421 3.234283
v 0.701258 2.623421 3.234283
v 0.750858 2.623421 3.011155
v 0.568747 2.623421 3.011155
v 0.564705 2.531085 3.226410
v 0.598534 2.531085 3.240316
v 0.721070 2.531085 3.240316
v 0.650385 2.716955 3.362401
v 0.747419 2.531085 3.226410
v 0.647669 2.716497 3.349653
v 0.669220 2.716955 3.362401
v 0.671936 2.716497 3.349653
v 0.702925 2.337455 2.962165
v 0.616680 2.337455 2.962165
v 0.573512 2.330322 3.010197
v 0.761817 2.325988 3.127071
v 0.738978 2.328788 3.194816
v 0.580627 2.328788 3.194816
v 0.560685 2.323189 3.059326
v 0.557788 2.325988 3.127071
v 0.746092 2.330322 3.010197
v 0.758920 2.323189 3.059326
v 0.543781 1.971902 3.168528
v 0.775824 1.971902 3.168528
v 0.564639 2.188062 3.229297
v 0.754966 2.188062 3.229297
v 0.778525 2.063838 3.187928
v 0.776965 2.125950 3.208612
v 0.541079 2.063838 3.187928
v 0.542640 2.125950 3.208612
v 0.659802 1.971902 3.453585
v 0.659802 1.971902 2.933894
v 0.659802 2.057375 3.425780
v 0.659802 2.199247 2.935225
v 0.659802 2.128694 3.354365
v 0.659802 2.183401 3.279783
v 0.659802 2.188531 3.224219
v 0.659802 1.971902 3.354365
v 0.659802 1.971902 3.279783
v 0.659802 1.971902 3.157339
v 0.659802 1.971902 3.056645
v 0.659802 1.971902 3.106992
v 0.659802 1.971902 2.995270
v 0.659802 1.993528 3.453585
v 0.659802 2.036634 3.439078
v 0.659802 2.092158 2.935225
v 0.659802 2.145702 2.935225
v 0.659802 2.327352 2.966245
v 0.659802 2.319093 3.188977
v 0.659802 2.330168 2.971712
v 0.659802 2.322342 3.182767
v 0.659802 2.415216 2.986628
v 0.659802 2.473774 3.196221
v 0.659802 2.421775 2.988307
v 0.659802 2.478960 3.190806
v 0.659802 2.421340 2.975907
v 0.659802 2.484099 3.202034
v 0.659802 2.623421 2.980923
v 0.659802 2.623421 3.062998
v 0.659802 2.623421 3.234283
v 0.659802 2.623421 3.011155
v 0.659802 2.531085 3.240316
v 0.659802 2.716955 3.362401
v 0.659802 2.716497 3.349653
v 0.659802 2.337455 2.962165
v 0.659802 2.328788 3.194816
v 0.659802 1.971902 3.168528
v 0.659802 2.188062 3.229297
vt 0.863354 0.190938
vt 0.900332 0.227965
vt 0.870196 0.248448
vt 0.823883 0.262526
vt 0.186353 0.370915
vt 0.228595 0.370879
vt 0.214522 0.467187
vt 0.178836 0.464570
vt 0.098720 0.334809
vt 0.135498 0.338701
vt 0.133759 0.373393
vt 0.096256 0.373334
vt 0.542042 0.234760
vt 0.576608 0.237383
vt 0.575381 0.249525
vt 0.542042 0.251102
vt 0.825806 0.339319
vt 0.889461 0.347362
vt 0.888952 0.381856
vt 0.836345 0.375885
vt 0.415541 0.279974
vt 0.454098 0.247889
vt 0.454657 0.260123
vt 0.438054 0.314362
vt 0.199264 0.335153
vt 0.232957 0.334271
vt 0.276396 0.335173
vt 0.327681 0.332498
vt 0.356697 0.377979
vt 0.285713 0.375314
vt 0.332420 0.331108
vt 0.377991 0.315107
vt 0.400799 0.361201
vt 0.361011 0.376433
vt 0.613218 0.271421
vt 0.588926 0.304412
vt 0.648653 0.308462
vt 0.623415 0.353069
vt 0.693120 0.326945
vt 0.697763 0.328598
vt 0.666325 0.372194
vt 0.662122 0.370418
vt 0.748695 0.334323
vt 0.792136 0.336201
vt 0.794151 0.373011
vt 0.736973 0.373752
vt 0.557022 0.315338
vt 0.582100 0.375108
vt 0.600822 0.407961
vt 0.602804 0.411203
vt 0.753861 0.474980
vt 0.696312 0.481850
vt 0.557425 0.189439
vt 0.617129 0.159066
vt 0.625838 0.195695
vt 0.577885 0.205046
vt 0.671337 0.152674
vt 0.672408 0.219243
vt 0.750342 0.159499
vt 0.757693 0.160635
vt 0.746187 0.236743
vt 0.739253 0.234923
vt 0.790733 0.166436
vt 0.824701 0.175353
vt 0.799039 0.255485
vt 0.774902 0.250828
vt 0.884173 0.469427
vt 0.837160 0.469378
vt 0.801570 0.469381
vt 0.825514 0.311474
vt 0.792771 0.306198
vt 0.160447 0.242690
vt 0.206045 0.258099
vt 0.201353 0.307431
vt 0.139761 0.304690
vt 0.231239 0.253833
vt 0.255241 0.251159
vt 0.268452 0.300886
vt 0.234210 0.304369
vt 0.758685 0.300495
vt 0.720136 0.290692
vt 0.714484 0.288722
vt 0.660839 0.269115
vt 0.625593 0.242798
vt 0.586302 0.220287
vt 0.359110 0.224505
vt 0.407052 0.203401
vt 0.404719 0.250622
vt 0.367978 0.275049
vt 0.291501 0.236826
vt 0.313237 0.291722
vt 0.284478 0.238299
vt 0.307492 0.293372
vt 0.454602 0.215413
vt 0.445326 0.230225
vt 0.888004 0.312928
vt 0.548303 0.203315
vt 0.135069 0.222341
vt 0.104888 0.296614
vt 0.755875 0.479256
vt 0.697924 0.488035
vt 0.103706 0.462803
vt 0.132018 0.461174
vt 0.132058 0.465950
vt 0.103835 0.466284
vt 0.178685 0.468769
vt 0.802071 0.473430
vt 0.638213 0.498053
vt 0.320170 0.486563
vt 0.262260 0.476128
vt 0.640561 0.509021
vt 0.699109 0.500749
vt 0.714476 0.604970
vt 0.648626 0.612500
vt 0.754115 0.488027
vt 0.771363 0.589848
vt 0.103684 0.472814
vt 0.131133 0.475148
vt 0.129845 0.528587
vt 0.102213 0.523799
vt 0.176689 0.476875
vt 0.163856 0.538648
vt 0.639196 0.501942
vt 0.213726 0.471223
vt 0.318185 0.492736
vt 0.259941 0.480318
vt 0.837001 0.473569
vt 0.883787 0.474205
vt 0.235295 0.592623
vt 0.295411 0.610837
vt 0.293534 0.617727
vt 0.232617 0.596718
vt 0.194725 0.560180
vt 0.192883 0.564063
vt 0.162940 0.543420
vt 0.716017 0.611660
vt 0.649036 0.617162
vt 0.773638 0.593894
vt 0.212799 0.478746
vt 0.261134 0.489314
vt 0.316272 0.505559
vt 0.802448 0.480930
vt 0.838378 0.481790
vt 0.845750 0.544032
vt 0.813420 0.562210
vt 0.884025 0.483485
vt 0.880543 0.537373
vt 0.814851 0.566155
vt 0.846185 0.548824
vt 0.846411 0.556415
vt 0.816374 0.572220
vt 0.292313 0.628748
vt 0.232135 0.604617
vt 0.190730 0.570083
vt 0.161939 0.551011
vt 0.716956 0.622659
vt 0.649360 0.624635
vt 0.881821 0.541782
vt 0.128151 0.532758
vt 0.101591 0.527563
vt 0.882939 0.549525
vt 0.884008 0.657423
vt 0.857703 0.655744
vt 0.832583 0.661976
vt 0.224772 0.756664
vt 0.243336 0.732583
vt 0.293953 0.814512
vt 0.291826 0.823573
vt 0.164474 0.658344
vt 0.140055 0.648898
vt 0.773629 0.601268
vt 0.126164 0.540226
vt 0.100280 0.534192
vt 0.894898 0.688892
vt 0.907604 0.669247
vt 0.757308 0.757216
vt 0.740001 0.731251
vt 0.866978 0.712645
vt 0.257058 0.651073
vt 0.113711 0.646901
vt 0.085564 0.655690
vt 0.686591 0.809372
vt 0.748847 0.646767
vt 0.701338 0.672845
vt 0.305559 0.677474
vt 0.299856 0.816939
vt 0.675871 0.815882
vt 0.680407 0.810783
vt 0.687510 0.818772
vt 0.649070 0.677008
vt 0.441008 0.385572
vt 0.420444 0.417493
vt 0.283926 0.160298
vt 0.363750 0.157733
vt 0.376913 0.509933
vt 0.375165 0.517024
vt 0.912093 0.476514
vt 0.911808 0.483099
vt 0.360929 0.634002
vt 0.356699 0.688078
vt 0.303477 0.822622
vt 0.910684 0.546340
vt 0.123458 0.705515
vt 0.097048 0.678547
vt 0.909950 0.539229
vt 0.909671 0.535246
vt 0.361598 0.626382
vt 0.362216 0.621638
vt 0.378111 0.506049
vt 0.418276 0.420637
vt 0.925489 0.384613
vt 0.912458 0.473029
vt 0.923047 0.308030
vt 0.926071 0.346184
vt 0.484346 0.215311
vt 0.488879 0.247170
vt 0.475972 0.200899
vt 0.169535 0.190682
vt 0.210088 0.173114
vt 0.242691 0.165268
vt 0.276461 0.161087
vt 0.417797 0.167140
vt 0.469417 0.327067
vt 0.487975 0.263545
vn 0.0000 -1.0000 0.0000
vn 0.0000 -0.7032 -0.7110
vn 0.2192 -0.6440 -0.7329
vn 0.6949 -0.6130 -0.3759
vn -0.8344 0.2971 -0.4642
vn -0.9380 0.3374 -0.0799
vn -0.8452 0.5245 -0.1025
vn -0.7612 0.5551 -0.3352
vn 0.0000 0.0000 -1.0000
vn -0.3160 0.0655 -0.9465
vn -0.3770 0.1864 -0.9073
vn 0.0000 0.1185 -0.9930
vn 0.0000 0.4326 0.9016
vn 0.4819 0.3894 0.7849
vn 0.3247 0.6245 0.7103
vn 0.0000 0.6273 0.7787
vn 0.8765 0.2156 -0.4303
vn 0.3160 0.0655 -0.9465
vn 0.3770 0.1864 -0.9073
vn 0.8344 0.2971 -0.4642
vn -0.8409 0.3448 0.4170
vn -0.4819 0.3894 0.7849
vn -0.3247 0.6245 0.7103
vn -0.3461 0.7035 0.6207
vn -0.8765 0.2156 -0.4303
vn -0.9768 0.2135 -0.0163
vn -0.9767 0.1217 0.1768
vn -0.9674 0.0991 0.2328
vn -0.7458 0.4400 0.5002
vn -0.9534 0.2563 0.1590
vn -0.9741 0.1723 0.1465
vn -0.9095 0.3124 0.2742
vn -0.3895 0.8401 0.3776
vn -0.5456 0.8079 0.2227
vn 0.8409 0.3448 0.4170
vn 0.3461 0.7035 0.6207
vn 0.9095 0.3124 0.2742
vn 0.3895 0.8401 0.3776
vn 0.9741 0.1723 0.1465
vn 0.9674 0.0991 0.2328
vn 0.7458 0.4400 0.5002
vn 0.5456 0.8079 0.2227
vn 0.9767 0.1217 0.1768
vn 0.9768 0.2135 -0.0163
vn 0.9380 0.3374 -0.0799
vn 0.9534 0.2563 0.1590
vn 0.0000 0.7591 0.6509
vn 0.0000 0.9350 0.3546
vn 0.0000 0.9958 0.0919
vn 0.0000 0.7651 0.6439
vn 0.8225 0.5601 0.0988
vn 0.4741 0.6026 0.6419
vn 0.0000 -0.7071 0.7071
vn 0.3868 -0.9187 0.0794
vn 0.2783 -0.7219 0.6336
vn 0.6153 -0.7830 0.0913
vn 0.6128 -0.7705 0.1755
vn 0.6811 -0.7314 0.0348
vn 0.7071 -0.7071 0.0000
vn 0.7279 -0.6663 0.1618
vn 0.3551 0.5935 -0.7222
vn 0.7612 0.5551 -0.3352
vn 0.8452 0.5245 -0.1025
vn 0.8804 0.0022 -0.4742
vn 1.0000 0.0000 0.0000
vn -0.2192 -0.6440 -0.7329
vn -0.6949 -0.6130 -0.3759
vn -0.8804 0.0022 -0.4742
vn -0.2867 0.0047 -0.9580
vn -0.7071 -0.7071 0.0000
vn -0.7279 -0.6663 0.1618
vn -0.9767 -0.0461 0.2096
vn -1.0000 0.0000 0.0000
vn 0.9767 -0.0461 0.2096
vn 0.9736 -0.0513 0.2224
vn 0.9993 -0.0218 0.0296
vn 0.9883 -0.0698 0.1357
vn 0.9318 -0.2175 0.2906
vn 0.5747 -0.1815 0.7980
vn -0.6153 -0.7830 0.0913
vn -0.3868 -0.9187 0.0794
vn -0.9318 -0.2175 0.2906
vn -0.9883 -0.0698 0.1357
vn -0.6811 -0.7314 0.0348
vn -0.9993 -0.0218 0.0296
vn -0.6128 -0.7705 0.1755
vn -0.9736 -0.0513 0.2224
vn -0.2783 -0.7219 0.6336
vn -0.5747 -0.1815 0.7980
vn 0.2867 0.0047 -0.9580
vn 0.0000 0.1616 0.9868
vn 0.0000 0.0055 -1.0000
vn 0.9946 -0.0302 0.0995
vn 0.6128 -0.0186 0.7900
vn 0.0000 0.6181 -0.7861
vn -0.3551 0.5935 -0.7222
vn -0.4187 0.0557 -0.9064
vn 0.0000 0.0880 -0.9961
vn -0.8895 -0.0020 -0.4569
vn 0.9890 0.0171 -0.1469
vn 0.0000 0.6258 0.7799
vn -0.4741 0.6026 0.6419
vn -0.8225 0.5601 0.0988
vn 0.0000 -0.5181 0.8553
vn 0.5093 -0.4672 0.7227
vn 0.5410 0.3770 0.7517
vn 0.0000 0.3882 0.9216
vn 0.8620 -0.4844 0.1494
vn 0.9266 0.3692 0.0714
vn 0.0000 -0.3022 -0.9532
vn -0.3095 -0.3041 -0.9009
vn -0.2907 0.3066 -0.9064
vn 0.0000 0.2741 -0.9617
vn -0.7461 -0.4277 -0.5103
vn -0.7439 0.2927 -0.6008
vn 0.0000 0.0046 1.0000
vn -0.9890 0.0171 -0.1469
vn -0.6128 -0.0186 0.7899
vn -0.9946 -0.0302 0.0995
vn 0.8895 -0.0020 -0.4569
vn 0.4187 0.0557 -0.9064
vn -0.9266 0.3692 0.0714
vn -0.5410 0.3770 0.7517
vn -0.5818 -0.2656 0.7687
vn -0.9152 -0.3265 0.2362
vn -0.9057 0.3278 -0.2687
vn -0.9755 -0.2047 -0.0802
vn -0.7975 -0.2056 -0.5672
vn 0.5818 -0.2656 0.7687
vn 0.0000 -0.1665 0.9860
vn 0.9152 -0.3265 0.2362
vn -0.8528 -0.5001 -0.1500
vn -0.8620 -0.4844 0.1494
vn -0.5093 -0.4672 0.7227
vn 0.8528 -0.5002 -0.1500
vn 0.7461 -0.4277 -0.5103
vn 0.7439 0.2927 -0.6008
vn 0.9057 0.3278 -0.2687
vn 0.3095 -0.3041 -0.9009
vn 0.2907 0.3066 -0.9064
vn 0.9755 -0.2047 -0.0802
vn 0.7975 -0.2056 -0.5672
vn 0.7612 -0.5296 -0.3743
vn 0.8622 -0.4908 0.1248
vn -0.4172 -0.7233 0.5502
vn -0.8630 -0.4225 0.2770
vn -0.8622 -0.4908 0.1248
vn -0.7612 -0.5296 -0.3743
vn 0.4675 -0.6869 0.5564
vn 0.0000 -0.7911 0.6117
vn 0.2556 -0.5700 -0.7808
vn -0.2556 -0.5700 -0.7808
vn 0.0000 -0.6269 -0.7791
vn 0.2858 -0.6204 -0.7303
vn 0.2261 0.6562 -0.7199
vn 0.6301 0.6373 -0.4435
vn 0.7416 0.6707 -0.0120
vn 0.0000 0.9429 -0.3329
vn -0.5695 0.7961 -0.2045
vn -0.5562 0.8109 0.1816
vn 0.0000 0.9368 -0.3498
vn -0.7416 0.6707 -0.0120
vn -0.6301 0.6373 -0.4435
vn 0.8644 -0.4172 0.2806
vn -0.2858 -0.6204 -0.7303
vn 0.0000 -0.7107 -0.7035
vn 0.0000 1.0000 0.0000
vn 0.0000 0.7158 -0.6983
vn 0.6000 0.7819 -0.1692
vn -0.9513 0.0211 0.3076
vn -0.2261 0.6562 -0.7199
vn 0.5925 0.7938 0.1370
vn 0.9509 0.0464 0.3059
vn 0.3674 -0.4843 0.7940
vn -0.3155 -0.5144 0.7974
vn -0.2280 0.2226 0.9479
vn 0.0000 0.4906 0.8714
vn 0.2680 0.2475 0.9310
vn 0.0000 -0.5911 0.8066
usemtl knightshoemat0
s 1
f 161/1/1 150/2/2 4/3/3 29/4/4
f 32/5/5 17/6/6 67/7/7 74/8/8
f 165/9/9 34/10/10 7/11/11 152/12/12
f 163/13/13 38/14/14 6/15/15 151/16/16
f 64/17/17 35/18/18 8/19/19 30/20/20
f 48/21/21 39/22/22 5/23/23 20/24/24
f 62/25/25 42/26/26 17/6/6 32/5/5
f 60/27/27 44/28/28 18/29/29 27/30/30
f 148/31/31 46/32/32 19/33/33 143/34/34
f 46/32/32 48/21/21 20/24/24 19/33/33
f 38/14/14 50/35/35 21/36/36 6/15/15
f 50/35/35 52/37/37 22/38/38 21/36/36
f 146/39/39 54/40/40 23/41/41 144/42/42
f 58/43/43 56/44/44 24/45/45 28/46/46
f 151/16/16 6/15/15 21/36/36 153/47/47
f 153/47/47 21/36/36 22/38/38 154/48/48
f 186/49/49 144/42/42 23/41/41 155/50/50
f 23/41/41 28/46/46 72/51/51 69/52/52
f 149/53/53 156/54/1 13/55/54 2/56/55
f 156/54/1 157/57/1 14/58/56 13/55/54
f 185/59/1 158/60/1 15/61/57 142/62/58
f 160/63/1 159/64/1 16/65/59 26/66/60
f 158/60/1 160/63/1 26/66/60 15/61/57
f 30/20/20 8/19/19 66/67/61 73/68/62
f 54/40/40 58/43/43 28/46/46 23/41/41
f 42/26/26 60/27/27 27/30/30 17/6/6
f 34/10/10 62/25/25 32/5/5 7/11/11
f 56/44/44 64/17/17 30/20/20 24/45/45
f 24/45/45 30/20/20 73/68/62 70/69/63
f 159/64/1 161/1/1 29/4/4 16/65/59
f 16/65/59 29/4/4 63/70/64 55/71/65
f 55/71/65 63/70/64 64/17/17 56/44/44
f 3/72/66 31/73/67 61/74/68 33/75/69
f 33/75/69 61/74/68 62/25/25 34/10/10
f 9/76/70 25/77/71 59/78/72 41/79/73
f 41/79/73 59/78/72 60/27/27 42/26/26
f 15/61/57 26/66/60 57/80/74 53/81/75
f 53/81/75 57/80/74 58/43/43 54/40/40
f 26/66/60 16/65/59 55/71/65 57/80/74
f 57/80/74 55/71/65 56/44/44 58/43/43
f 142/62/58 15/61/57 53/81/75 145/82/76
f 145/82/76 53/81/75 54/40/40 146/39/39
f 13/55/54 14/58/56 51/83/77 49/84/78
f 49/84/78 51/83/77 52/37/37 50/35/35
f 2/56/55 13/55/54 49/84/78 37/85/79
f 37/85/79 49/84/78 50/35/35 38/14/14
f 11/86/80 12/87/81 47/88/82 45/89/83
f 45/89/83 47/88/82 48/21/21 46/32/32
f 141/90/84 11/86/80 45/89/83 147/91/85
f 147/91/85 45/89/83 46/32/32 148/31/31
f 25/77/71 10/92/86 43/93/87 59/78/72
f 59/78/72 43/93/87 44/28/28 60/27/27
f 31/73/67 9/76/70 41/79/73 61/74/68
f 61/74/68 41/79/73 42/26/26 62/25/25
f 12/87/81 1/94/88 40/95/89 47/88/82
f 47/88/82 40/95/89 39/22/22 48/21/21
f 29/4/4 4/3/3 36/96/90 63/70/64
f 63/70/64 36/96/90 35/18/18 64/17/17
f 149/53/53 2/56/55 37/85/79 162/97/91
f 162/97/91 37/85/79 38/14/14 163/13/13
f 150/98/2 3/72/66 33/75/69 164/99/92
f 164/99/92 33/75/69 34/10/10 165/9/9
f 69/52/52 72/51/51 82/100/93 79/101/94
f 166/102/95 65/103/96 75/104/97 168/105/98
f 65/103/96 74/8/8 84/106/99 75/104/97
f 72/51/51 70/69/63 80/107/100 82/100/93
f 28/46/46 24/45/45 70/69/63 72/51/51
f 152/12/12 7/11/11 65/103/96 166/102/95
f 7/11/11 32/5/5 74/8/8 65/103/96
f 155/50/50 23/41/41 69/52/52 167/108/101
f 27/30/30 18/29/29 68/109/102 71/110/103
f 17/6/6 27/30/30 71/110/103 67/7/7
f 184/111/104 135/112/105 89/113/106 171/114/107
f 135/112/105 134/115/108 92/116/109 89/113/106
f 183/117/110 132/118/111 85/119/112 170/120/113
f 132/118/111 133/121/114 94/122/115 85/119/112
f 167/108/101 69/52/52 79/101/94 169/123/116
f 74/8/8 67/7/7 77/124/117 84/106/99
f 71/110/103 68/109/102 78/125/118 81/126/119
f 70/69/63 73/68/62 83/127/120 80/107/100
f 73/68/62 66/67/61 76/128/121 83/127/120
f 67/7/7 71/110/103 81/126/119 77/124/117
f 91/129/122 88/130/123 98/131/124 101/132/125
f 94/122/115 87/133/126 97/134/127 104/135/128
f 171/114/107 89/113/106 99/136/129 173/137/130
f 89/113/106 92/116/109 102/138/131 99/136/129
f 133/121/114 137/139/132 87/133/126 94/122/115
f 138/140/133 136/141/134 88/130/123 91/129/122
f 140/142/135 139/143/136 93/144/137 90/145/138
f 139/143/136 131/146/139 86/147/140 93/144/137
f 137/139/132 138/140/133 91/129/122 87/133/126
f 134/115/108 140/142/135 90/145/138 92/116/109
f 100/148/141 103/149/142 113/150/143 110/151/144
f 101/132/125 98/131/124 108/152/145 111/153/146
f 104/135/128 97/134/127 107/154/147 114/155/148
f 173/137/130 99/136/129 109/156/149 175/157/150
f 90/145/138 93/144/137 103/149/142 100/148/141
f 93/144/137 86/147/140 96/158/151 103/149/142
f 87/133/126 91/129/122 101/132/125 97/134/127
f 92/116/109 90/145/138 100/148/141 102/138/131
f 85/119/112 94/122/115 104/135/128 95/159/152
f 170/120/113 85/119/112 95/159/152 172/160/153
f 113/150/143 106/161/154 116/162/155 121/163/156
f 110/151/144 113/150/143 121/163/156 118/164/157
f 178/165/158 119/166/159 128/167/160 182/168/161
f 114/155/148 107/154/147 117/169/162 122/170/163
f 103/149/142 96/158/151 106/161/154 113/150/143
f 97/134/127 101/132/125 111/153/146 107/154/147
f 102/138/131 100/148/141 110/151/144 112/171/164
f 95/159/152 104/135/128 114/155/148 105/172/165
f 172/160/153 95/159/152 105/172/165 174/173/166
f 99/136/129 102/138/131 112/171/164 109/156/149
f 179/174/167 121/163/156 116/162/155 176/175/168
f 178/176/158 120/177/169 118/164/157 177/178/167
f 119/166/159 111/153/146 123/179/170 128/167/160
f 177/178/167 118/164/157 121/163/156 179/174/167
f 107/154/147 111/153/146 119/166/159 117/169/162
f 112/171/164 110/151/144 118/164/157 120/177/169
f 105/172/165 114/155/148 122/170/163 115/180/171
f 174/173/166 105/172/165 115/180/171 176/181/168
f 112/171/164 120/177/169 130/182/172 127/183/173
f 109/156/149 112/171/164 127/183/173 125/184/174
f 123/179/170 124/185/175 126/186/176 128/167/160
f 181/187/177 129/188/178 130/182/172 182/189/161
f 125/184/174 127/183/173 130/182/172 129/188/178
f 180/190/179 125/184/174 129/188/178 181/187/177
f 175/157/150 109/156/149 125/184/174 180/190/179
f 111/153/146 108/152/145 124/185/175 123/179/170
f 82/100/93 80/107/100 140/142/135 134/115/108
f 77/124/117 81/126/119 138/140/133 137/139/132
f 83/127/120 76/128/121 131/146/139 139/143/136
f 80/107/100 83/127/120 139/143/136 140/142/135
f 81/126/119 78/125/118 136/141/134 138/140/133
f 84/106/99 77/124/117 137/139/132 133/121/114
f 75/104/97 84/106/99 133/121/114 132/118/111
f 168/105/98 75/104/97 132/118/111 183/117/110
f 79/101/94 82/100/93 134/115/108 135/112/105
f 169/123/116 79/101/94 135/112/105 184/111/104
f 43/93/87 147/91/85 148/31/31 44/28/28
f 10/92/86 141/90/84 147/91/85 43/93/87
f 51/83/77 145/82/76 146/39/39 52/37/37
f 14/58/56 142/62/58 145/82/76 51/83/77
f 157/57/1 185/59/1 142/62/58 14/58/56
f 154/48/48 22/38/38 144/42/42 186/49/49
f 52/37/37 146/39/39 144/42/42 22/38/38
f 44/28/28 148/31/31 143/34/34 18/29/29
f 19/33/33 154/191/48 186/192/49 143/34/34
f 11/86/80 141/90/84 185/193/1 157/194/1
f 78/125/118 169/195/116 184/196/104 136/141/134
f 76/128/121 168/197/98 183/198/110 131/146/139
f 108/152/145 175/199/150 180/200/179 124/185/175
f 124/185/175 180/200/179 181/201/177 126/186/176
f 126/186/176 181/201/177 182/168/161 128/167/160
f 106/161/154 174/202/166 176/175/168 116/162/155
f 117/169/162 177/203/167 179/204/167 122/170/163
f 119/166/159 178/165/158 177/203/167 117/169/162
f 122/170/163 179/204/167 176/181/168 115/180/171
f 96/158/151 172/205/153 174/202/166 106/161/154
f 120/177/169 178/176/158 182/189/161 130/182/172
f 86/147/140 170/206/113 172/205/153 96/158/151
f 98/131/124 173/207/130 175/199/150 108/152/145
f 88/130/123 171/208/107 173/207/130 98/131/124
f 68/109/102 167/209/101 169/195/116 78/125/118
f 131/146/139 183/198/110 170/206/113 86/147/140
f 136/141/134 184/196/104 171/208/107 88/130/123
f 18/29/29 155/210/50 167/209/101 68/109/102
f 8/19/19 152/211/12 166/212/95 66/67/61
f 66/67/61 166/212/95 168/197/98 76/128/121
f 36/96/90 164/213/92 165/214/9 35/18/18
f 4/3/3 150/2/2 164/213/92 36/96/90
f 40/95/89 162/215/91 163/216/13 39/22/22
f 1/94/88 149/217/53 162/215/91 40/95/89
f 9/76/70 31/73/67 161/218/1 159/219/1
f 10/92/86 25/77/71 160/220/1 158/221/1
f 25/77/71 9/76/70 159/219/1 160/220/1
f 141/90/84 10/92/86 158/221/1 185/193/1
f 12/87/81 11/86/80 157/194/1 156/222/1
f 1/94/88 12/87/81 156/222/1 149/217/53
f 143/34/34 186/192/49 155/210/50 18/29/29
f 20/24/24 153/223/47 154/191/48 19/33/33
f 5/23/23 151/224/16 153/223/47 20/24/24
f 39/22/22 163/216/13 151/224/16 5/23/23
f 35/18/18 165/214/9 152/211/12 8/19/19
f 31/73/67 3/72/66 150/98/2 161/218/1
